<?xml version="1.0" standalone="no"?><!DOCTYPE svg PUBLIC "-//W3C//DTD SVG 1.1//EN" "http://www.w3.org/Graphics/SVG/1.1/DTD/svg11.dtd"><svg t="1614578144249" class="icon" viewBox="0 0 1024 1024" version="1.1" xmlns="http://www.w3.org/2000/svg" p-id="1623" xmlns:xlink="http://www.w3.org/1999/xlink" width="200" height="200"><defs><style type="text/css"></style></defs><path d="M512 85.333333C276.48 85.333333 85.333333 276.48 85.333333 512s191.146667 426.666667 426.666667 426.666667 426.666667-191.146667 426.666667-426.666667S747.52 85.333333 512 85.333333zM405.333333 359.68c4.266667-62.293333 39.253333-103.68 107.946667-103.68 70.4 0 101.12 47.36 104.96 103.68 17.493333 0 19.2 23.04 16.64 40.533333-2.133333 16.64-15.786667 37.12-28.586667 43.946667-39.253333 119.466667-149.76 119.893333-189.013333 0-12.8-6.826667-26.453333-26.88-28.586667-43.946667-2.133333-17.493333-0.853333-40.533333 16.64-40.533333z m349.44 408.32H269.226667v-102.4c0-59.733333 43.52-111.36 104.96-124.16l44.8-9.386667 93.013333 185.173334 93.013333-185.173334 44.8 9.386667c61.44 12.8 104.96 64.426667 104.96 124.16v102.4z" fill="#4C4C4C" p-id="1624"></path></svg>