<?xml version="1.0" standalone="no"?><!DOCTYPE svg PUBLIC "-//W3C//DTD SVG 1.1//EN" "http://www.w3.org/Graphics/SVG/1.1/DTD/svg11.dtd"><svg t="1614578793214" class="icon" viewBox="0 0 1024 1024" version="1.1" xmlns="http://www.w3.org/2000/svg" p-id="2313" xmlns:xlink="http://www.w3.org/1999/xlink" width="200" height="200"><defs><style type="text/css"></style></defs><path d="M791.573333 512h-11.392c-27.370667 114.282667-126.122667 200.277333-246.122666 207.317333V896h148.181333a42.453333 42.453333 0 0 1 42.261333 42.624V938.666667H301.290667v-0.042667A42.453333 42.453333 0 0 1 343.552 896h148.181333v-176.682667c-119.978667-7.04-218.752-93.034667-246.122666-207.317333h-11.712c-93.525333 0-169.344-75.605333-169.344-168.874667v-123.072c0-17.664 12.458667-32 27.84-32h145.429333V136.789333A51.242667 51.242667 0 0 1 288.874667 85.333333h448.085333a51.264 51.264 0 0 1 51.050667 51.456v51.264h145.088c15.36 0 27.818667 14.336 27.818666 32v123.072c0 93.269333-75.818667 168.874667-169.344 168.874667zM233.365333 230.72H106.901333v112.405333c0 69.546667 56.917333 126.122667 126.890667 126.208l-0.426667-238.613333z m512.32-93.930667A8.768 8.768 0 0 0 736.96 128H288.874667a8.746667 8.746667 0 0 0-8.725334 8.789333v311.253334c0 126.421333 102.016 229.269333 227.434667 229.269333h10.688c125.397333 0 227.434667-102.848 227.434667-229.269333V136.789333z m172.906667 93.930667h-126.464L791.722667 469.333333c69.973333-0.085333 126.890667-56.661333 126.890666-126.208v-112.405333zM401.813333 550.485333c0.832 0.362667 0.789333 0.469333 0.469334 0.469334a4.736 4.736 0 0 1-0.469334-0.042667v-0.426667z" p-id="2314"></path></svg>