<?xml version="1.0" standalone="no"?><!DOCTYPE svg PUBLIC "-//W3C//DTD SVG 1.1//EN" "http://www.w3.org/Graphics/SVG/1.1/DTD/svg11.dtd"><svg t="1614578853892" class="icon" viewBox="0 0 1024 1024" version="1.1" xmlns="http://www.w3.org/2000/svg" p-id="2149" xmlns:xlink="http://www.w3.org/1999/xlink" width="200" height="200"><defs><style type="text/css"></style></defs><path d="M901 531.9c0-26.3-11.1-62.5-58.3-96.5 37.1-27.1 58.3-59.9 58.3-96 0-98-155.9-172-362.7-172s-362.7 73.9-362.7 172c0 36.1 21.2 69 58.3 96.1-37.9 27.6-58.3 60.9-58.3 96.4 0 36.1 21.2 69 58.4 96.1-38 27.6-58.4 60.8-58.4 96.4 0 98 155.9 172 362.7 172S901 822.5 901 724.4c0-35.6-20.4-68.9-58.3-96.4 37.1-27.1 58.3-59.9 58.3-96.1zM538.3 231.7c184.9 0 298.4 62.7 298.4 107.7S723.2 447.1 538.3 447.1s-298.4-62.7-298.4-107.7 113.5-107.7 298.4-107.7z m0 279.7c93.6 0 176.7-15.2 239.7-40.9 35.8 18.7 58.7 42.3 58.7 61.4 0 45-113.5 107.7-298.4 107.7s-298.4-62.7-298.4-107.7c0-19.6 22.3-42.2 59.6-61 62.9 25.5 145.7 40.5 238.8 40.5z m298.5 213c0 45-113.5 107.7-298.4 107.7S240 769.4 240 724.4c0-19.6 22.3-42.1 59.6-61 62.9 25.4 145.7 40.5 238.8 40.5s175.9-15 238.8-40.5c37.3 18.9 59.6 41.4 59.6 61z" fill="#2A2A2A" p-id="2150"></path><path d="M413.2 343a125.1 36.4 0 1 0 250.2 0 125.1 36.4 0 1 0-250.2 0Z" fill="#A5E8D0" p-id="2151"></path><path d="M413.2 568.4a125.1 36.4 0 1 0 250.2 0 125.1 36.4 0 1 0-250.2 0Z" fill="#A5E8D0" p-id="2152"></path><path d="M413.2 770.9a125.1 36.4 0 1 0 250.2 0 125.1 36.4 0 1 0-250.2 0Z" fill="#A5E8D0" p-id="2153"></path></svg>